<svg version="1.1" viewBox="0.0 0.0 792.0 565.0" fill="none" stroke="none" stroke-linecap="square" stroke-miterlimit="10" width="792" height="565" xmlns:xlink="http://www.w3.org/1999/xlink" xmlns="http://www.w3.org/2000/svg"><path fill="#ffffff" d="M0 0L792.0 0L792.0 565.0L0 565.0L0 0Z" fill-rule="nonzero"/><path fill="#00ff00" d="M396.0 71.083336C487.8503 71.083336 571.11725 125.08217 608.583 208.94392C646.04877 292.8057 630.711 390.85678 569.4253 459.27124L396.0 303.91666Z" fill-rule="nonzero"/><path fill="#ffff00" d="M569.4253 459.27124C498.05225 538.9463 381.5733 559.73975 287.0407 509.68167C192.50812 459.62357 144.24522 351.59393 170.03505 247.78107C195.82487 143.96822 289.03168 71.083336 396.0 71.083336L396.0 303.91666Z" fill-rule="nonzero"/><path fill="#000000" d="M518.84863 239.95352L518.84863 229.9379L521.8799 229.9379L523.708 236.76602L525.5049 229.9379L528.53613 229.9379L528.53613 239.95352L526.66113 239.95352L526.66113 232.0629L524.66113 239.95352L522.72363 239.95352L520.73926 232.0629L520.73926 239.95352L518.84863 239.95352ZM533.30176 234.90665L531.5674 234.59415Q531.84863 233.54727 532.5674 233.04727Q533.28613 232.53165 534.708 232.53165Q535.98926 232.53165 536.61426 232.84415Q537.2549 233.14102 537.5049 233.60977Q537.7549 234.07852 537.7549 235.32852L537.73926 237.5629Q537.73926 238.53165 537.833 238.98477Q537.92676 239.4379 538.17676 239.95352L536.28613 239.95352Q536.208 239.76602 536.09863 239.39102Q536.05176 239.21915 536.0205 239.15665Q535.53613 239.64102 534.97363 239.89102Q534.41113 240.1254 533.7705 240.1254Q532.66113 240.1254 532.0049 239.51602Q531.36426 238.90665 531.36426 237.96915Q531.36426 237.35977 531.66113 236.8754Q531.958 236.39102 532.47363 236.14102Q533.0049 235.8754 534.0049 235.6879Q535.34863 235.4379 535.8799 235.21915L535.8799 235.03165Q535.8799 234.46915 535.59863 234.23477Q535.333 234.0004 534.5674 234.0004Q534.05176 234.0004 533.7705 234.20352Q533.48926 234.40665 533.30176 234.90665ZM535.8799 236.46915Q535.5049 236.59415 534.708 236.76602Q533.91113 236.9379 533.66113 237.09415Q533.28613 237.35977 533.28613 237.76602Q533.28613 238.17227 533.583 238.46915Q533.8799 238.76602 534.34863 238.76602Q534.86426 238.76602 535.34863 238.42227Q535.6924 238.15665 535.80176 237.78165Q535.8799 237.54727 535.8799 236.84415L535.8799 236.46915ZM543.1924 232.6879L543.1924 234.21915L541.8799 234.21915L541.8799 237.15665Q541.8799 238.03165 541.91113 238.1879Q541.958 238.32852 542.083 238.4379Q542.22363 238.53165 542.42676 238.53165Q542.6924 238.53165 543.1924 238.34415L543.34863 239.82852Q542.6924 240.1254 541.833 240.1254Q541.3174 240.1254 540.8955 239.95352Q540.48926 239.76602 540.28613 239.5004Q540.09863 239.21915 540.0205 238.7504Q539.958 238.40665 539.958 237.39102L539.958 234.21915L539.083 234.21915L539.083 232.6879L539.958 232.6879L539.958 231.2504L541.8799 230.1254L541.8799 232.6879L543.1924 232.6879ZM551.1924 234.84415L549.30176 235.1879Q549.208 234.60977 548.86426 234.32852Q548.53613 234.04727 547.98926 234.04727Q547.2705 234.04727 546.84863 234.54727Q546.42676 235.03165 546.42676 236.1879Q546.42676 237.48477 546.84863 238.01602Q547.28613 238.54727 548.0205 238.54727Q548.5674 238.54727 548.91113 238.23477Q549.2705 237.92227 549.41113 237.17227L551.30176 237.48477Q551.0049 238.79727 550.16113 239.46915Q549.333 240.1254 547.92676 240.1254Q546.333 240.1254 545.3799 239.1254Q544.4424 238.10977 544.4424 236.32852Q544.4424 234.53165 545.3955 233.53165Q546.34863 232.53165 547.97363 232.53165Q549.28613 232.53165 550.0674 233.10977Q550.86426 233.67227 551.1924 234.84415ZM554.78613 229.9379L554.78613 233.60977Q555.708 232.53165 557.0049 232.53165Q557.66113 232.53165 558.1924 232.78165Q558.73926 233.01602 559.0049 233.40665Q559.2705 233.78165 559.36426 234.2504Q559.47363 234.71915 559.47363 235.6879L559.47363 239.95352L557.55176 239.95352L557.55176 236.1254Q557.55176 234.96915 557.4424 234.67227Q557.333 234.35977 557.05176 234.1879Q556.78613 234.0004 556.36426 234.0004Q555.8799 234.0004 555.5049 234.23477Q555.1299 234.46915 554.958 234.9379Q554.78613 235.40665 554.78613 236.3129L554.78613 239.95352L552.86426 239.95352L552.86426 229.9379L554.78613 229.9379ZM561.86426 231.70352L561.86426 229.9379L563.78613 229.9379L563.78613 231.70352L561.86426 231.70352ZM561.86426 239.95352L561.86426 232.6879L563.78613 232.6879L563.78613 239.95352L561.86426 239.95352ZM572.47363 239.95352L570.55176 239.95352L570.55176 236.2504Q570.55176 235.07852 570.42676 234.73477Q570.30176 234.3754 570.0205 234.1879Q569.7549 234.0004 569.36426 234.0004Q568.86426 234.0004 568.458 234.28165Q568.0674 234.54727 567.91113 235.0004Q567.7705 235.45352 567.7705 236.67227L567.7705 239.95352L565.84863 239.95352L565.84863 232.6879L567.6455 232.6879L567.6455 233.76602Q568.583 232.53165 570.03613 232.53165Q570.66113 232.53165 571.1924 232.76602Q571.72363 232.98477 571.98926 233.34415Q572.2549 233.70352 572.36426 234.15665Q572.47363 234.59415 572.47363 235.4379L572.47363 239.95352ZM574.6924 240.4379L576.8799 240.70352Q576.9424 241.07852 577.1455 241.21915Q577.41113 241.4379 578.0049 241.4379Q578.7549 241.4379 579.1299 241.20352Q579.3799 241.04727 579.5049 240.71915Q579.59863 240.48477 579.59863 239.84415L579.59863 238.78165Q578.73926 239.95352 577.42676 239.95352Q575.958 239.95352 575.11426 238.71915Q574.4424 237.73477 574.4424 236.28165Q574.4424 234.45352 575.3174 233.5004Q576.1924 232.53165 577.5049 232.53165Q578.84863 232.53165 579.72363 233.71915L579.72363 232.6879L581.5205 232.6879L581.5205 239.20352Q581.5205 240.5004 581.30176 241.1254Q581.09863 241.76602 580.708 242.1254Q580.333 242.48477 579.6924 242.6879Q579.05176 242.90665 578.083 242.90665Q576.22363 242.90665 575.458 242.26602Q574.6924 241.64102 574.6924 240.67227Q574.6924 240.5629 574.6924 240.4379ZM576.41113 236.17227Q576.41113 237.32852 576.84863 237.8754Q577.30176 238.40665 577.958 238.40665Q578.66113 238.40665 579.1455 237.85977Q579.6299 237.29727 579.6299 236.21915Q579.6299 235.09415 579.16113 234.54727Q578.708 234.0004 577.98926 234.0004Q577.30176 234.0004 576.84863 234.54727Q576.41113 235.07852 576.41113 236.17227Z" fill-rule="nonzero"/><path fill="#000000" d="M207.45537 371.95013L207.45537 361.9345L209.42412 361.9345L213.51787 368.622L213.51787 361.9345L215.39287 361.9345L215.39287 371.95013L213.36162 371.95013L209.33037 365.41888L209.33037 371.95013L207.45537 371.95013ZM216.971 368.21576Q216.971 367.26263 217.43974 366.372Q217.9085 365.46576 218.76787 364.997Q219.64287 364.52826 220.70537 364.52826Q222.36162 364.52826 223.4085 365.60638Q224.45537 366.66888 224.45537 368.29388Q224.45537 369.95013 223.39287 371.04388Q222.33037 372.122 220.721 372.122Q219.721 372.122 218.81474 371.66888Q217.9085 371.21576 217.43974 370.34076Q216.971 369.46576 216.971 368.21576ZM218.93974 368.32513Q218.93974 369.40326 219.45537 369.98138Q219.971 370.54388 220.721 370.54388Q221.471 370.54388 221.971 369.98138Q222.48662 369.40326 222.48662 368.3095Q222.48662 367.247 221.971 366.66888Q221.471 366.09076 220.721 366.09076Q219.971 366.09076 219.45537 366.66888Q218.93974 367.247 218.93974 368.32513ZM233.01787 371.95013L231.096 371.95013L231.096 368.247Q231.096 367.07513 230.971 366.73138Q230.846 366.372 230.56474 366.1845Q230.29912 365.997 229.9085 365.997Q229.4085 365.997 229.00224 366.27826Q228.61162 366.54388 228.45537 366.997Q228.31474 367.45013 228.31474 368.66888L228.31474 371.95013L226.39287 371.95013L226.39287 364.6845L228.18974 364.6845L228.18974 365.76263Q229.12724 364.52826 230.58037 364.52826Q231.20537 364.52826 231.73662 364.76263Q232.26787 364.98138 232.5335 365.34076Q232.79912 365.70013 232.9085 366.15326Q233.01787 366.59076 233.01787 367.4345L233.01787 371.95013ZM235.18974 369.27826L235.18974 367.35638L238.971 367.35638L238.971 369.27826L235.18974 369.27826ZM239.39287 371.95013L239.39287 361.9345L242.42412 361.9345L244.25224 368.76263L246.04912 361.9345L249.08037 361.9345L249.08037 371.95013L247.20537 371.95013L247.20537 364.0595L245.20537 371.95013L243.26787 371.95013L241.2835 364.0595L241.2835 371.95013L239.39287 371.95013ZM253.846 366.90326L252.11162 366.59076Q252.39287 365.54388 253.11162 365.04388Q253.83037 364.52826 255.25224 364.52826Q256.5335 364.52826 257.1585 364.84076Q257.79913 365.13763 258.04913 365.60638Q258.29913 366.07513 258.29913 367.32513L258.2835 369.5595Q258.2835 370.52826 258.37726 370.98138Q258.471 371.4345 258.721 371.95013L256.83038 371.95013Q256.75226 371.76263 256.64288 371.38763Q256.596 371.21576 256.56476 371.15326Q256.08038 371.63763 255.51787 371.88763Q254.95537 372.122 254.31474 372.122Q253.20537 372.122 252.54912 371.51263Q251.9085 370.90326 251.9085 369.96576Q251.9085 369.35638 252.20537 368.872Q252.50224 368.38763 253.01787 368.13763Q253.54912 367.872 254.54912 367.6845Q255.89287 367.4345 256.42413 367.21576L256.42413 367.02826Q256.42413 366.46576 256.14288 366.23138Q255.87724 365.997 255.11162 365.997Q254.596 365.997 254.31474 366.20013Q254.0335 366.40326 253.846 366.90326ZM256.42413 368.46576Q256.04913 368.59076 255.25224 368.76263Q254.45537 368.9345 254.20537 369.09076Q253.83037 369.35638 253.83037 369.76263Q253.83037 370.16888 254.12724 370.46576Q254.42412 370.76263 254.89287 370.76263Q255.4085 370.76263 255.89287 370.41888Q256.23663 370.15326 256.346 369.77826Q256.42413 369.54388 256.42413 368.84076L256.42413 368.46576ZM263.73663 364.6845L263.73663 366.21576L262.42413 366.21576L262.42413 369.15326Q262.42413 370.02826 262.45538 370.1845Q262.50226 370.32513 262.62726 370.4345Q262.76788 370.52826 262.971 370.52826Q263.23663 370.52826 263.73663 370.34076L263.89288 371.82513Q263.23663 372.122 262.37726 372.122Q261.86163 372.122 261.43976 371.95013Q261.0335 371.76263 260.83038 371.497Q260.64288 371.21576 260.56476 370.747Q260.50226 370.40326 260.50226 369.38763L260.50226 366.21576L259.62726 366.21576L259.62726 364.6845L260.50226 364.6845L260.50226 363.247L262.42413 362.122L262.42413 364.6845L263.73663 364.6845ZM271.73663 366.84076L269.846 367.1845Q269.75226 366.60638 269.4085 366.32513Q269.08038 366.04388 268.5335 366.04388Q267.81476 366.04388 267.39288 366.54388Q266.971 367.02826 266.971 368.1845Q266.971 369.48138 267.39288 370.01263Q267.83038 370.54388 268.56476 370.54388Q269.11163 370.54388 269.45538 370.23138Q269.81476 369.91888 269.95538 369.16888L271.846 369.48138Q271.54913 370.79388 270.70538 371.46576Q269.87726 372.122 268.471 372.122Q266.87726 372.122 265.92413 371.122Q264.98663 370.10638 264.98663 368.32513Q264.98663 366.52826 265.93976 365.52826Q266.89288 364.52826 268.51788 364.52826Q269.83038 364.52826 270.61163 365.10638Q271.4085 365.66888 271.73663 366.84076ZM275.33038 361.9345L275.33038 365.60638Q276.25226 364.52826 277.54913 364.52826Q278.20538 364.52826 278.73663 364.77826Q279.2835 365.01263 279.54913 365.40326Q279.81476 365.77826 279.9085 366.247Q280.01788 366.71576 280.01788 367.6845L280.01788 371.95013L278.096 371.95013L278.096 368.122Q278.096 366.96576 277.98663 366.66888Q277.87726 366.35638 277.596 366.1845Q277.33038 365.997 276.9085 365.997Q276.42413 365.997 276.04913 366.23138Q275.67413 366.46576 275.50226 366.9345Q275.33038 367.40326 275.33038 368.3095L275.33038 371.95013L273.4085 371.95013L273.4085 361.9345L275.33038 361.9345ZM282.4085 363.70013L282.4085 361.9345L284.33038 361.9345L284.33038 363.70013L282.4085 363.70013ZM282.4085 371.95013L282.4085 364.6845L284.33038 364.6845L284.33038 371.95013L282.4085 371.95013ZM293.01788 371.95013L291.096 371.95013L291.096 368.247Q291.096 367.07513 290.971 366.73138Q290.846 366.372 290.56476 366.1845Q290.29913 365.997 289.9085 365.997Q289.4085 365.997 289.00226 366.27826Q288.61163 366.54388 288.45538 366.997Q288.31476 367.45013 288.31476 368.66888L288.31476 371.95013L286.39288 371.95013L286.39288 364.6845L288.18976 364.6845L288.18976 365.76263Q289.12726 364.52826 290.58038 364.52826Q291.20538 364.52826 291.73663 364.76263Q292.26788 364.98138 292.5335 365.34076Q292.79913 365.70013 292.9085 366.15326Q293.01788 366.59076 293.01788 367.4345L293.01788 371.95013ZM295.23663 372.4345L297.42413 372.70013Q297.48663 373.07513 297.68976 373.21576Q297.95538 373.4345 298.54913 373.4345Q299.29913 373.4345 299.67413 373.20013Q299.92413 373.04388 300.04913 372.71576Q300.14288 372.48138 300.14288 371.84076L300.14288 370.77826Q299.2835 371.95013 297.971 371.95013Q296.50226 371.95013 295.6585 370.71576Q294.98663 369.73138 294.98663 368.27826Q294.98663 366.45013 295.86163 365.497Q296.73663 364.52826 298.04913 364.52826Q299.39288 364.52826 300.26788 365.71576L300.26788 364.6845L302.06476 364.6845L302.06476 371.20013Q302.06476 372.497 301.846 373.122Q301.64288 373.76263 301.25226 374.122Q300.87726 374.48138 300.23663 374.6845Q299.596 374.90326 298.62726 374.90326Q296.76788 374.90326 296.00226 374.26263Q295.23663 373.63763 295.23663 372.66888Q295.23663 372.5595 295.23663 372.4345ZM296.95538 368.16888Q296.95538 369.32513 297.39288 369.872Q297.846 370.40326 298.50226 370.40326Q299.20538 370.40326 299.68976 369.85638Q300.17413 369.29388 300.17413 368.21576Q300.17413 367.09076 299.70538 366.54388Q299.25226 365.997 298.5335 365.997Q297.846 365.997 297.39288 366.54388Q296.95538 367.07513 296.95538 368.16888Z" fill-rule="nonzero"/><path fill="#1a1a1a" d="M29.171875 389.64078L29.171875 381.04703L30.328125 381.04703L34.84375 387.79703L34.84375 381.04703L35.9375 381.04703L35.9375 389.64078L34.765625 389.64078L30.25 382.89078L30.25 389.64078L29.171875 389.64078ZM37.65625 386.5314Q37.65625 384.79703 38.609375 383.9689Q39.40625 383.2814 40.5625 383.2814Q41.84375 383.2814 42.65625 384.12515Q43.484375 384.95328 43.484375 386.43765Q43.484375 387.64078 43.125 388.32828Q42.765625 389.01578 42.0625 389.4064Q41.375 389.7814 40.5625 389.7814Q39.265625 389.7814 38.453125 388.95328Q37.65625 388.10953 37.65625 386.5314ZM38.734375 386.5314Q38.734375 387.7189 39.25 388.31265Q39.78125 388.9064 40.5625 388.9064Q41.359375 388.9064 41.875 388.31265Q42.390625 387.7189 42.390625 386.50015Q42.390625 385.3439 41.859375 384.75015Q41.34375 384.1564 40.5625 384.1564Q39.78125 384.1564 39.25 384.75015Q38.734375 385.32828 38.734375 386.5314ZM45.046875 389.64078L45.046875 383.42203L45.984375 383.42203L45.984375 384.29703Q46.671875 383.2814 47.96875 383.2814Q48.53125 383.2814 49.0 383.48453Q49.484375 383.68765 49.71875 384.01578Q49.953125 384.3439 50.046875 384.7814Q50.09375 385.07828 50.09375 385.81265L50.09375 389.64078L49.046875 389.64078L49.046875 385.85953Q49.046875 385.20328 48.921875 384.89078Q48.796875 384.57828 48.484375 384.39078Q48.171875 384.18765 47.75 384.18765Q47.078125 384.18765 46.578125 384.62515Q46.09375 385.04703 46.09375 386.23453L46.09375 389.64078L45.046875 389.64078ZM51.625 387.06265L51.625 386.00015L54.875 386.00015L54.875 387.06265L51.625 387.06265ZM56.140625 389.64078L56.140625 381.04703L57.859375 381.04703L59.890625 387.12515Q60.171875 387.98453 60.296875 388.4064Q60.4375 387.93765 60.75 387.0314L62.8125 381.04703L64.34375 381.04703L64.34375 389.64078L63.25 389.64078L63.25 382.45328L60.75 389.64078L59.71875 389.64078L57.234375 382.32828L57.234375 389.64078L56.140625 389.64078ZM69.109375 388.87515Q68.515625 389.37515 67.96875 389.57828Q67.4375 389.7814 66.8125 389.7814Q65.78125 389.7814 65.234375 389.2814Q64.6875 388.7814 64.6875 388.00015Q64.6875 387.54703 64.890625 387.17203Q65.09375 386.7814 65.4375 386.56265Q65.78125 386.32828 66.203125 386.2189Q66.5 386.12515 67.140625 386.04703Q68.40625 385.9064 69.015625 385.68765Q69.015625 385.4689 69.015625 385.42203Q69.015625 384.76578 68.71875 384.50015Q68.3125 384.1564 67.515625 384.1564Q66.78125 384.1564 66.421875 384.42203Q66.0625 384.67203 65.890625 385.32828L64.859375 385.18765Q65.0 384.5314 65.328125 384.12515Q65.65625 383.7189 66.265625 383.50015Q66.875 383.2814 67.671875 383.2814Q68.46875 383.2814 68.96875 383.4689Q69.46875 383.6564 69.703125 383.93765Q69.9375 384.2189 70.03125 384.6564Q70.078125 384.92203 70.078125 385.62515L70.078125 387.0314Q70.078125 388.50015 70.140625 388.89078Q70.21875 389.2814 70.421875 389.64078L69.3125 389.64078Q69.15625 389.31265 69.109375 388.87515ZM69.015625 386.51578Q68.4375 386.75015 67.296875 386.92203Q66.640625 387.01578 66.375 387.14078Q66.109375 387.25015 65.953125 387.4689Q65.8125 387.68765 65.8125 387.9689Q65.8125 388.39078 66.125 388.67203Q66.453125 388.95328 67.0625 388.95328Q67.671875 388.95328 68.140625 388.68765Q68.625 388.42203 68.84375 387.95328Q69.015625 387.5939 69.015625 386.9064L69.015625 386.51578ZM74.34375 388.70328L74.5 389.62515Q74.046875 389.7189 73.703125 389.7189Q73.125 389.7189 72.8125 389.54703Q72.5 389.35953 72.359375 389.06265Q72.234375 388.76578 72.234375 387.81265L72.234375 384.23453L71.46875 384.23453L71.46875 383.42203L72.234375 383.42203L72.234375 381.87515L73.28125 381.25015L73.28125 383.42203L74.34375 383.42203L74.34375 384.23453L73.28125 384.23453L73.28125 387.87515Q73.28125 388.32828 73.328125 388.45328Q73.390625 388.57828 73.515625 388.6564Q73.640625 388.73453 73.875 388.73453Q74.0625 388.73453 74.34375 388.70328ZM79.109375 387.35953L80.140625 387.50015Q79.96875 388.56265 79.265625 389.17203Q78.5625 389.7814 77.546875 389.7814Q76.265625 389.7814 75.484375 388.95328Q74.71875 388.10953 74.71875 386.54703Q74.71875 385.54703 75.046875 384.79703Q75.390625 384.0314 76.0625 383.6564Q76.75 383.2814 77.5625 383.2814Q78.5625 383.2814 79.203125 383.79703Q79.859375 384.29703 80.046875 385.25015L79.015625 385.4064Q78.875 384.7814 78.5 384.4689Q78.125 384.14078 77.59375 384.14078Q76.796875 384.14078 76.296875 384.7189Q75.796875 385.2814 75.796875 386.51578Q75.796875 387.7814 76.28125 388.3439Q76.765625 388.9064 77.53125 388.9064Q78.15625 388.9064 78.5625 388.5314Q78.984375 388.1564 79.109375 387.35953ZM81.046875 389.64078L81.046875 381.04703L82.09375 381.04703L82.09375 384.12515Q82.828125 383.2814 83.953125 383.2814Q84.65625 383.2814 85.15625 383.56265Q85.671875 383.82828 85.890625 384.31265Q86.109375 384.7814 86.109375 385.70328L86.109375 389.64078L85.0625 389.64078L85.0625 385.70328Q85.0625 384.9064 84.71875 384.54703Q84.375 384.18765 83.75 384.18765Q83.28125 384.18765 82.859375 384.43765Q82.453125 384.67203 82.265625 385.0939Q82.09375 385.50015 82.09375 386.23453L82.09375 389.64078L81.046875 389.64078ZM88.046875 382.26578L88.046875 381.04703L89.109375 381.04703L89.109375 382.26578L88.046875 382.26578ZM88.046875 389.64078L88.046875 383.42203L89.109375 383.42203L89.109375 389.64078L88.046875 389.64078ZM91.046875 389.64078L91.046875 383.42203L91.984375 383.42203L91.984375 384.29703Q92.671875 383.2814 93.96875 383.2814Q94.53125 383.2814 95.0 383.48453Q95.484375 383.68765 95.71875 384.01578Q95.953125 384.3439 96.046875 384.7814Q96.09375 385.07828 96.09375 385.81265L96.09375 389.64078L95.046875 389.64078L95.046875 385.85953Q95.046875 385.20328 94.921875 384.89078Q94.796875 384.57828 94.484375 384.39078Q94.171875 384.18765 93.75 384.18765Q93.078125 384.18765 92.578125 384.62515Q92.09375 385.04703 92.09375 386.23453L92.09375 389.64078L91.046875 389.64078ZM97.84375 390.1564L98.875 390.31265Q98.9375 390.7814 99.234375 391.00015Q99.625 391.29703 100.296875 391.29703Q101.03125 391.29703 101.421875 391.00015Q101.828125 390.70328 101.96875 390.18765Q102.0625 389.85953 102.046875 388.82828Q101.359375 389.64078 100.328125 389.64078Q99.046875 389.64078 98.34375 388.7189Q97.640625 387.7814 97.640625 386.50015Q97.640625 385.60953 97.953125 384.85953Q98.28125 384.0939 98.890625 383.68765Q99.5 383.2814 100.328125 383.2814Q101.4375 383.2814 102.15625 384.17203L102.15625 383.42203L103.125 383.42203L103.125 388.79703Q103.125 390.25015 102.828125 390.85953Q102.53125 391.4689 101.890625 391.81265Q101.25 392.17203 100.3125 392.17203Q99.203125 392.17203 98.515625 391.67203Q97.828125 391.17203 97.84375 390.1564ZM98.71875 386.42203Q98.71875 387.64078 99.203125 388.20328Q99.6875 388.76578 100.421875 388.76578Q101.15625 388.76578 101.640625 388.20328Q102.140625 387.64078 102.140625 386.45328Q102.140625 385.31265 101.625 384.73453Q101.125 384.1564 100.40625 384.1564Q99.703125 384.1564 99.203125 384.73453Q98.71875 385.29703 98.71875 386.42203Z" fill-rule="nonzero"/><path fill="#9e9e9e" d="M34.21875 400.1564L33.171875 400.23453Q33.03125 399.60953 32.78125 399.32828Q32.34375 398.87515 31.71875 398.87515Q31.21875 398.87515 30.828125 399.1564Q30.34375 399.5314 30.046875 400.23453Q29.765625 400.92203 29.75 402.20328Q30.125 401.62515 30.671875 401.3439Q31.234375 401.06265 31.84375 401.06265Q32.890625 401.06265 33.625 401.8439Q34.375 402.62515 34.375 403.8439Q34.375 404.6564 34.015625 405.35953Q33.671875 406.04703 33.0625 406.42203Q32.453125 406.7814 31.6875 406.7814Q30.359375 406.7814 29.53125 405.81265Q28.703125 404.8439 28.703125 402.62515Q28.703125 400.12515 29.625 399.00015Q30.421875 398.01578 31.78125 398.01578Q32.796875 398.01578 33.4375 398.5939Q34.09375 399.1564 34.21875 400.1564ZM29.921875 403.85953Q29.921875 404.4064 30.140625 404.9064Q30.375 405.39078 30.78125 405.6564Q31.203125 405.92203 31.671875 405.92203Q32.328125 405.92203 32.8125 405.39078Q33.296875 404.8439 33.296875 403.92203Q33.296875 403.0314 32.8125 402.51578Q32.34375 402.00015 31.625 402.00015Q30.90625 402.00015 30.40625 402.51578Q29.921875 403.0314 29.921875 403.85953ZM35.75 404.37515L36.8125 404.23453Q36.984375 405.12515 37.421875 405.5314Q37.859375 405.92203 38.484375 405.92203Q39.234375 405.92203 39.75 405.4064Q40.265625 404.89078 40.265625 404.12515Q40.265625 403.4064 39.78125 402.93765Q39.3125 402.45328 38.578125 402.45328Q38.28125 402.45328 37.828125 402.57828L37.953125 401.64078Q38.0625 401.6564 38.125 401.6564Q38.796875 401.6564 39.328125 401.31265Q39.875 400.95328 39.875 400.2189Q39.875 399.64078 39.484375 399.26578Q39.09375 398.87515 38.46875 398.87515Q37.859375 398.87515 37.4375 399.26578Q37.03125 399.6564 36.921875 400.42203L35.859375 400.23453Q36.046875 399.18765 36.734375 398.60953Q37.421875 398.01578 38.4375 398.01578Q39.140625 398.01578 39.734375 398.32828Q40.328125 398.62515 40.640625 399.14078Q40.953125 399.6564 40.953125 400.25015Q40.953125 400.79703 40.65625 401.26578Q40.359375 401.7189 39.78125 401.98453Q40.53125 402.1564 40.953125 402.7189Q41.375 403.26578 41.375 404.10953Q41.375 405.23453 40.546875 406.01578Q39.734375 406.79703 38.484375 406.79703Q37.359375 406.79703 36.609375 406.12515Q35.859375 405.43765 35.75 404.37515ZM43.34375 406.64078L43.34375 405.43765L44.546875 405.43765L44.546875 406.64078L43.34375 406.64078ZM49.125 406.64078L49.125 404.57828L45.40625 404.57828L45.40625 403.60953L49.328125 398.04703L50.1875 398.04703L50.1875 403.60953L51.34375 403.60953L51.34375 404.57828L50.1875 404.57828L50.1875 406.64078L49.125 406.64078ZM49.125 403.60953L49.125 399.75015L46.4375 403.60953L49.125 403.60953ZM52.953125 400.10953Q52.953125 399.18765 53.40625 398.54703Q53.875 397.9064 54.75 397.9064Q55.5625 397.9064 56.09375 398.48453Q56.625 399.06265 56.625 400.17203Q56.625 401.26578 56.078125 401.85953Q55.546875 402.43765 54.765625 402.43765Q53.984375 402.43765 53.46875 401.85953Q52.953125 401.2814 52.953125 400.10953ZM54.78125 398.62515Q54.390625 398.62515 54.125 398.9689Q53.875 399.31265 53.875 400.2189Q53.875 401.04703 54.125 401.39078Q54.390625 401.7189 54.78125 401.7189Q55.1875 401.7189 55.4375 401.37515Q55.703125 401.0314 55.703125 400.14078Q55.703125 399.29703 55.4375 398.9689Q55.171875 398.62515 54.78125 398.62515ZM54.78125 406.95328L59.484375 397.9064L60.34375 397.9064L55.65625 406.95328L54.78125 406.95328ZM58.5 404.62515Q58.5 403.70328 58.953125 403.06265Q59.421875 402.42203 60.3125 402.42203Q61.125 402.42203 61.65625 403.00015Q62.1875 403.56265 62.1875 404.68765Q62.1875 405.7814 61.640625 406.37515Q61.109375 406.95328 60.3125 406.95328Q59.546875 406.95328 59.015625 406.37515Q58.5 405.79703 58.5 404.62515ZM60.34375 403.14078Q59.9375 403.14078 59.671875 403.48453Q59.421875 403.82828 59.421875 404.73453Q59.421875 405.54703 59.6875 405.89078Q59.953125 406.23453 60.34375 406.23453Q60.734375 406.23453 61.0 405.89078Q61.265625 405.54703 61.265625 404.64078Q61.265625 403.81265 61.0 403.48453Q60.734375 403.14078 60.34375 403.14078Z" fill-rule="nonzero"/><path stroke="#757575" stroke-width="1.0" stroke-linecap="butt" d="M28.25 394.14078L157.16667 394.14078L194.04613 394.14078" fill-rule="nonzero"/><path fill="#9e9e9e" d="M196.04613 394.14078C196.04613 393.0362 195.1507 392.14078 194.04613 392.14078C192.94156 392.14078 192.04613 393.0362 192.04613 394.14078C192.04613 395.24533 192.94156 396.14078 194.04613 396.14078C195.1507 396.14078 196.04613 395.24533 196.04613 394.14078" fill-rule="nonzero"/><path fill="#1a1a1a" d="M715.6406 209.19257L715.6406 200.59882L717.3594 200.59882L719.3906 206.67694Q719.6719 207.53632 719.7969 207.95819Q719.9375 207.48944 720.25 206.58319L722.3125 200.59882L723.84375 200.59882L723.84375 209.19257L722.75 209.19257L722.75 202.00507L720.25 209.19257L719.21875 209.19257L716.7344 201.88007L716.7344 209.19257L715.6406 209.19257ZM728.6094 208.42694Q728.0156 208.92694 727.46875 209.13007Q726.9375 209.33319 726.3125 209.33319Q725.28125 209.33319 724.7344 208.83319Q724.1875 208.33319 724.1875 207.55194Q724.1875 207.09882 724.3906 206.72382Q724.59375 206.33319 724.9375 206.11444Q725.28125 205.88007 725.7031 205.77069Q726.0 205.67694 726.6406 205.59882Q727.90625 205.45819 728.5156 205.23944Q728.5156 205.02069 728.5156 204.97382Q728.5156 204.31757 728.21875 204.05194Q727.8125 203.70819 727.0156 203.70819Q726.28125 203.70819 725.9219 203.97382Q725.5625 204.22382 725.3906 204.88007L724.3594 204.73944Q724.5 204.08319 724.8281 203.67694Q725.15625 203.27069 725.7656 203.05194Q726.375 202.83319 727.1719 202.83319Q727.96875 202.83319 728.46875 203.02069Q728.96875 203.20819 729.2031 203.48944Q729.4375 203.77069 729.53125 204.20819Q729.5781 204.47382 729.5781 205.17694L729.5781 206.58319Q729.5781 208.05194 729.6406 208.44257Q729.71875 208.83319 729.9219 209.19257L728.8125 209.19257Q728.65625 208.86444 728.6094 208.42694ZM728.5156 206.06757Q727.9375 206.30194 726.7969 206.47382Q726.1406 206.56757 725.875 206.69257Q725.6094 206.80194 725.4531 207.02069Q725.3125 207.23944 725.3125 207.52069Q725.3125 207.94257 725.625 208.22382Q725.9531 208.50507 726.5625 208.50507Q727.1719 208.50507 727.6406 208.23944Q728.125 207.97382 728.34375 207.50507Q728.5156 207.14569 728.5156 206.45819L728.5156 206.06757ZM733.84375 208.25507L734.0 209.17694Q733.5469 209.27069 733.2031 209.27069Q732.625 209.27069 732.3125 209.09882Q732.0 208.91132 731.8594 208.61444Q731.7344 208.31757 731.7344 207.36444L731.7344 203.78632L730.96875 203.78632L730.96875 202.97382L731.7344 202.97382L731.7344 201.42694L732.78125 200.80194L732.78125 202.97382L733.84375 202.97382L733.84375 203.78632L732.78125 203.78632L732.78125 207.42694Q732.78125 207.88007 732.8281 208.00507Q732.8906 208.13007 733.0156 208.20819Q733.1406 208.28632 733.375 208.28632Q733.5625 208.28632 733.84375 208.25507ZM738.6094 206.91132L739.6406 207.05194Q739.46875 208.11444 738.7656 208.72382Q738.0625 209.33319 737.0469 209.33319Q735.7656 209.33319 734.9844 208.50507Q734.21875 207.66132 734.21875 206.09882Q734.21875 205.09882 734.5469 204.34882Q734.8906 203.58319 735.5625 203.20819Q736.25 202.83319 737.0625 202.83319Q738.0625 202.83319 738.7031 203.34882Q739.3594 203.84882 739.5469 204.80194L738.5156 204.95819Q738.375 204.33319 738.0 204.02069Q737.625 203.69257 737.09375 203.69257Q736.2969 203.69257 735.7969 204.27069Q735.2969 204.83319 735.2969 206.06757Q735.2969 207.33319 735.78125 207.89569Q736.2656 208.45819 737.03125 208.45819Q737.65625 208.45819 738.0625 208.08319Q738.4844 207.70819 738.6094 206.91132ZM740.5469 209.19257L740.5469 200.59882L741.59375 200.59882L741.59375 203.67694Q742.3281 202.83319 743.4531 202.83319Q744.15625 202.83319 744.65625 203.11444Q745.1719 203.38007 745.3906 203.86444Q745.6094 204.33319 745.6094 205.25507L745.6094 209.19257L744.5625 209.19257L744.5625 205.25507Q744.5625 204.45819 744.21875 204.09882Q743.875 203.73944 743.25 203.73944Q742.78125 203.73944 742.3594 203.98944Q741.9531 204.22382 741.7656 204.64569Q741.59375 205.05194 741.59375 205.78632L741.59375 209.19257L740.5469 209.19257ZM747.5469 201.81757L747.5469 200.59882L748.6094 200.59882L748.6094 201.81757L747.5469 201.81757ZM747.5469 209.19257L747.5469 202.97382L748.6094 202.97382L748.6094 209.19257L747.5469 209.19257ZM750.5469 209.19257L750.5469 202.97382L751.4844 202.97382L751.4844 203.84882Q752.1719 202.83319 753.46875 202.83319Q754.03125 202.83319 754.5 203.03632Q754.9844 203.23944 755.21875 203.56757Q755.4531 203.89569 755.5469 204.33319Q755.59375 204.63007 755.59375 205.36444L755.59375 209.19257L754.5469 209.19257L754.5469 205.41132Q754.5469 204.75507 754.4219 204.44257Q754.2969 204.13007 753.9844 203.94257Q753.6719 203.73944 753.25 203.73944Q752.5781 203.73944 752.0781 204.17694Q751.59375 204.59882 751.59375 205.78632L751.59375 209.19257L750.5469 209.19257ZM757.34375 209.70819L758.375 209.86444Q758.4375 210.33319 758.7344 210.55194Q759.125 210.84882 759.7969 210.84882Q760.53125 210.84882 760.9219 210.55194Q761.3281 210.25507 761.46875 209.73944Q761.5625 209.41132 761.5469 208.38007Q760.8594 209.19257 759.8281 209.19257Q758.5469 209.19257 757.84375 208.27069Q757.1406 207.33319 757.1406 206.05194Q757.1406 205.16132 757.4531 204.41132Q757.78125 203.64569 758.3906 203.23944Q759.0 202.83319 759.8281 202.83319Q760.9375 202.83319 761.65625 203.72382L761.65625 202.97382L762.625 202.97382L762.625 208.34882Q762.625 209.80194 762.3281 210.41132Q762.03125 211.02069 761.3906 211.36444Q760.75 211.72382 759.8125 211.72382Q758.7031 211.72382 758.0156 211.22382Q757.3281 210.72382 757.34375 209.70819ZM758.21875 205.97382Q758.21875 207.19257 758.7031 207.75507Q759.1875 208.31757 759.9219 208.31757Q760.65625 208.31757 761.1406 207.75507Q761.6406 207.19257 761.6406 206.00507Q761.6406 204.86444 761.125 204.28632Q760.625 203.70819 759.90625 203.70819Q759.2031 203.70819 758.7031 204.28632Q758.21875 204.84882 758.21875 205.97382Z" fill-rule="nonzero"/><path fill="#9e9e9e" d="M729.25 223.92694L730.3125 223.78632Q730.4844 224.67694 730.9219 225.08319Q731.3594 225.47382 731.9844 225.47382Q732.7344 225.47382 733.25 224.95819Q733.7656 224.44257 733.7656 223.67694Q733.7656 222.95819 733.28125 222.48944Q732.8125 222.00507 732.0781 222.00507Q731.78125 222.00507 731.3281 222.13007L731.4531 221.19257Q731.5625 221.20819 731.625 221.20819Q732.2969 221.20819 732.8281 220.86444Q733.375 220.50507 733.375 219.77069Q733.375 219.19257 732.9844 218.81757Q732.59375 218.42694 731.96875 218.42694Q731.3594 218.42694 730.9375 218.81757Q730.53125 219.20819 730.4219 219.97382L729.3594 219.78632Q729.5469 218.73944 730.2344 218.16132Q730.9219 217.56757 731.9375 217.56757Q732.6406 217.56757 733.2344 217.88007Q733.8281 218.17694 734.1406 218.69257Q734.4531 219.20819 734.4531 219.80194Q734.4531 220.34882 734.15625 220.81757Q733.8594 221.27069 733.28125 221.53632Q734.03125 221.70819 734.4531 222.27069Q734.875 222.81757 734.875 223.66132Q734.875 224.78632 734.0469 225.56757Q733.2344 226.34882 731.9844 226.34882Q730.8594 226.34882 730.1094 225.67694Q729.3594 224.98944 729.25 223.92694ZM741.71875 219.70819L740.6719 219.78632Q740.53125 219.16132 740.28125 218.88007Q739.84375 218.42694 739.21875 218.42694Q738.71875 218.42694 738.3281 218.70819Q737.84375 219.08319 737.5469 219.78632Q737.2656 220.47382 737.25 221.75507Q737.625 221.17694 738.1719 220.89569Q738.7344 220.61444 739.34375 220.61444Q740.3906 220.61444 741.125 221.39569Q741.875 222.17694 741.875 223.39569Q741.875 224.20819 741.5156 224.91132Q741.1719 225.59882 740.5625 225.97382Q739.9531 226.33319 739.1875 226.33319Q737.8594 226.33319 737.03125 225.36444Q736.2031 224.39569 736.2031 222.17694Q736.2031 219.67694 737.125 218.55194Q737.9219 217.56757 739.28125 217.56757Q740.2969 217.56757 740.9375 218.14569Q741.59375 218.70819 741.71875 219.70819ZM737.4219 223.41132Q737.4219 223.95819 737.6406 224.45819Q737.875 224.94257 738.28125 225.20819Q738.7031 225.47382 739.1719 225.47382Q739.8281 225.47382 740.3125 224.94257Q740.7969 224.39569 740.7969 223.47382Q740.7969 222.58319 740.3125 222.06757Q739.84375 221.55194 739.125 221.55194Q738.40625 221.55194 737.90625 222.06757Q737.4219 222.58319 737.4219 223.41132ZM743.84375 226.19257L743.84375 224.98944L745.0469 224.98944L745.0469 226.19257L743.84375 226.19257ZM751.71875 219.70819L750.6719 219.78632Q750.53125 219.16132 750.28125 218.88007Q749.84375 218.42694 749.21875 218.42694Q748.71875 218.42694 748.3281 218.70819Q747.84375 219.08319 747.5469 219.78632Q747.2656 220.47382 747.25 221.75507Q747.625 221.17694 748.1719 220.89569Q748.7344 220.61444 749.34375 220.61444Q750.3906 220.61444 751.125 221.39569Q751.875 222.17694 751.875 223.39569Q751.875 224.20819 751.5156 224.91132Q751.1719 225.59882 750.5625 225.97382Q749.9531 226.33319 749.1875 226.33319Q747.8594 226.33319 747.03125 225.36444Q746.2031 224.39569 746.2031 222.17694Q746.2031 219.67694 747.125 218.55194Q747.9219 217.56757 749.28125 217.56757Q750.2969 217.56757 750.9375 218.14569Q751.59375 218.70819 751.71875 219.70819ZM747.4219 223.41132Q747.4219 223.95819 747.6406 224.45819Q747.875 224.94257 748.28125 225.20819Q748.7031 225.47382 749.1719 225.47382Q749.8281 225.47382 750.3125 224.94257Q750.7969 224.39569 750.7969 223.47382Q750.7969 222.58319 750.3125 222.06757Q749.84375 221.55194 749.125 221.55194Q748.40625 221.55194 747.90625 222.06757Q747.4219 222.58319 747.4219 223.41132ZM753.4531 219.66132Q753.4531 218.73944 753.90625 218.09882Q754.375 217.45819 755.25 217.45819Q756.0625 217.45819 756.59375 218.03632Q757.125 218.61444 757.125 219.72382Q757.125 220.81757 756.5781 221.41132Q756.0469 221.98944 755.2656 221.98944Q754.4844 221.98944 753.96875 221.41132Q753.4531 220.83319 753.4531 219.66132ZM755.28125 218.17694Q754.8906 218.17694 754.625 218.52069Q754.375 218.86444 754.375 219.77069Q754.375 220.59882 754.625 220.94257Q754.8906 221.27069 755.28125 221.27069Q755.6875 221.27069 755.9375 220.92694Q756.2031 220.58319 756.2031 219.69257Q756.2031 218.84882 755.9375 218.52069Q755.6719 218.17694 755.28125 218.17694ZM755.28125 226.50507L759.9844 217.45819L760.84375 217.45819L756.15625 226.50507L755.28125 226.50507ZM759.0 224.17694Q759.0 223.25507 759.4531 222.61444Q759.9219 221.97382 760.8125 221.97382Q761.625 221.97382 762.15625 222.55194Q762.6875 223.11444 762.6875 224.23944Q762.6875 225.33319 762.1406 225.92694Q761.6094 226.50507 760.8125 226.50507Q760.0469 226.50507 759.5156 225.92694Q759.0 225.34882 759.0 224.17694ZM760.84375 222.69257Q760.4375 222.69257 760.1719 223.03632Q759.9219 223.38007 759.9219 224.28632Q759.9219 225.09882 760.1875 225.44257Q760.4531 225.78632 760.84375 225.78632Q761.2344 225.78632 761.5 225.44257Q761.7656 225.09882 761.7656 224.19257Q761.7656 223.36444 761.5 223.03632Q761.2344 222.69257 760.84375 222.69257Z" fill-rule="nonzero"/><path stroke="#757575" stroke-width="1.0" stroke-linecap="butt" d="M763.75 213.69257L634.8333 213.69257L597.95386 213.69257" fill-rule="nonzero"/><path fill="#9e9e9e" d="M599.95386 213.69257C599.95386 212.588 599.0584 211.69257 597.95386 211.69257C596.8493 211.69257 595.95386 212.588 595.95386 213.69257C595.95386 214.79713 596.8493 215.69257 597.95386 215.69257C599.0584 215.69257 599.95386 214.79713 599.95386 213.69257" fill-rule="nonzero"/><path fill="#757575" d="M29.734375 47.25L29.734375 32.9375L32.59375 32.9375L35.96875 43.0625Q36.4375 44.484375 36.65625 45.1875Q36.90625 44.40625 37.421875 42.890625L40.84375 32.9375L43.390625 32.9375L43.390625 47.25L41.578125 47.25L41.578125 35.265625L37.40625 47.25L35.703125 47.25L31.5625 35.0625L31.5625 47.25L29.734375 47.25ZM53.671875 43.90625L55.484375 44.140625Q55.0625 45.71875 53.890625 46.609375Q52.734375 47.484375 50.921875 47.484375Q48.65625 47.484375 47.3125 46.09375Q45.984375 44.6875 45.984375 42.15625Q45.984375 39.53125 47.328125 38.09375Q48.671875 36.640625 50.828125 36.640625Q52.90625 36.640625 54.21875 38.0625Q55.546875 39.46875 55.546875 42.046875Q55.546875 42.203125 55.53125 42.515625L47.796875 42.515625Q47.890625 44.21875 48.765625 45.125Q49.640625 46.03125 50.9375 46.03125Q51.90625 46.03125 52.578125 45.53125Q53.265625 45.015625 53.671875 43.90625ZM47.890625 41.0625L53.6875 41.0625Q53.578125 39.765625 53.03125 39.109375Q52.1875 38.09375 50.84375 38.09375Q49.640625 38.09375 48.8125 38.90625Q47.984375 39.703125 47.890625 41.0625ZM57.5625 47.25L57.5625 36.875L59.140625 36.875L59.140625 38.328125Q59.625 37.578125 60.4375 37.109375Q61.25 36.640625 62.28125 36.640625Q63.4375 36.640625 64.171875 37.125Q64.90625 37.59375 65.21875 38.453125Q66.453125 36.640625 68.421875 36.640625Q69.96875 36.640625 70.796875 37.5Q71.625 38.359375 71.625 40.125L71.625 47.25L69.875 47.25L69.875 40.71875Q69.875 39.65625 69.703125 39.203125Q69.53125 38.734375 69.078125 38.453125Q68.640625 38.171875 68.03125 38.171875Q66.9375 38.171875 66.203125 38.90625Q65.484375 39.625 65.484375 41.21875L65.484375 47.25L63.734375 47.25L63.734375 40.515625Q63.734375 39.34375 63.296875 38.765625Q62.875 38.171875 61.890625 38.171875Q61.15625 38.171875 60.515625 38.5625Q59.890625 38.953125 59.609375 39.703125Q59.328125 40.453125 59.328125 41.875L59.328125 47.25L57.5625 47.25ZM75.1875 47.25L73.5625 47.25L73.5625 32.9375L75.3125 32.9375L75.3125 38.046875Q76.4375 36.640625 78.15625 36.640625Q79.109375 36.640625 79.96875 37.03125Q80.828125 37.421875 81.375 38.125Q81.921875 38.8125 82.234375 39.796875Q82.546875 40.78125 82.546875 41.90625Q82.546875 44.578125 81.234375 46.03125Q79.921875 47.484375 78.078125 47.484375Q76.234375 47.484375 75.1875 45.953125L75.1875 47.25ZM75.171875 41.984375Q75.171875 43.84375 75.671875 44.6875Q76.515625 46.03125 77.921875 46.03125Q79.078125 46.03125 79.90625 45.03125Q80.75 44.03125 80.75 42.046875Q80.75 40.015625 79.9375 39.0625Q79.140625 38.09375 78.0 38.09375Q76.84375 38.09375 76.0 39.09375Q75.171875 40.09375 75.171875 41.984375ZM91.671875 43.90625L93.484375 44.140625Q93.0625 45.71875 91.890625 46.609375Q90.734375 47.484375 88.921875 47.484375Q86.65625 47.484375 85.3125 46.09375Q83.984375 44.6875 83.984375 42.15625Q83.984375 39.53125 85.328125 38.09375Q86.671875 36.640625 88.828125 36.640625Q90.90625 36.640625 92.21875 38.0625Q93.546875 39.46875 93.546875 42.046875Q93.546875 42.203125 93.53125 42.515625L85.796875 42.515625Q85.890625 44.21875 86.765625 45.125Q87.640625 46.03125 88.9375 46.03125Q89.90625 46.03125 90.578125 45.53125Q91.265625 45.015625 91.671875 43.90625ZM85.890625 41.0625L91.6875 41.0625Q91.578125 39.765625 91.03125 39.109375Q90.1875 38.09375 88.84375 38.09375Q87.640625 38.09375 86.8125 38.90625Q85.984375 39.703125 85.890625 41.0625ZM95.546875 47.25L95.546875 36.875L97.125 36.875L97.125 38.453125Q97.734375 37.34375 98.25 37.0Q98.765625 36.640625 99.375 36.640625Q100.265625 36.640625 101.1875 37.203125L100.578125 38.84375Q99.9375 38.453125 99.296875 38.453125Q98.71875 38.453125 98.25 38.8125Q97.796875 39.15625 97.59375 39.765625Q97.3125 40.703125 97.3125 41.8125L97.3125 47.25L95.546875 47.25ZM108.5625 51.21875L108.5625 36.875L110.171875 36.875L110.171875 38.21875Q110.734375 37.4375 111.4375 37.046875Q112.15625 36.640625 113.171875 36.640625Q114.5 36.640625 115.515625 37.328125Q116.53125 38.015625 117.046875 39.265625Q117.578125 40.5 117.578125 41.984375Q117.578125 43.578125 117.0 44.859375Q116.4375 46.125 115.34375 46.8125Q114.25 47.484375 113.046875 47.484375Q112.171875 47.484375 111.46875 47.109375Q110.78125 46.734375 110.328125 46.171875L110.328125 51.21875L108.5625 51.21875ZM110.15625 42.125Q110.15625 44.125 110.96875 45.078125Q111.78125 46.03125 112.9375 46.03125Q114.109375 46.03125 114.9375 45.046875Q115.78125 44.0625 115.78125 41.96875Q115.78125 40.0 114.953125 39.015625Q114.140625 38.015625 113.015625 38.015625Q111.890625 38.015625 111.015625 39.078125Q110.15625 40.125 110.15625 42.125ZM119.546875 47.25L119.546875 36.875L121.125 36.875L121.125 38.453125Q121.734375 37.34375 122.25 37.0Q122.765625 36.640625 123.375 36.640625Q124.265625 36.640625 125.1875 37.203125L124.578125 38.84375Q123.9375 38.453125 123.296875 38.453125Q122.71875 38.453125 122.25 38.8125Q121.796875 39.15625 121.59375 39.765625Q121.3125 40.703125 121.3125 41.8125L121.3125 47.25L119.546875 47.25ZM125.921875 42.0625Q125.921875 39.1875 127.515625 37.796875Q128.85938 36.640625 130.78125 36.640625Q132.92188 36.640625 134.26562 38.046875Q135.625 39.453125 135.625 41.921875Q135.625 43.921875 135.03125 45.078125Q134.4375 46.21875 133.28125 46.859375Q132.14062 47.484375 130.78125 47.484375Q128.59375 47.484375 127.25 46.09375Q125.921875 44.6875 125.921875 42.0625ZM127.71875 42.0625Q127.71875 44.0625 128.57812 45.046875Q129.45312 46.03125 130.78125 46.03125Q132.09375 46.03125 132.95312 45.046875Q133.82812 44.046875 133.82812 42.0Q133.82812 40.078125 132.95312 39.09375Q132.07812 38.09375 130.78125 38.09375Q129.45312 38.09375 128.57812 39.09375Q127.71875 40.078125 127.71875 42.0625ZM137.98438 47.25L137.98438 38.25L136.4375 38.25L136.4375 36.875L137.98438 36.875L137.98438 35.78125Q137.98438 34.734375 138.17188 34.21875Q138.42188 33.53125 139.0625 33.109375Q139.70312 32.6875 140.85938 32.6875Q141.60938 32.6875 142.5 32.859375L142.23438 34.390625Q141.6875 34.296875 141.20312 34.296875Q140.40625 34.296875 140.0625 34.640625Q139.73438 34.984375 139.73438 35.921875L139.73438 36.875L141.76562 36.875L141.76562 38.25L139.73438 38.25L139.73438 47.25L137.98438 47.25ZM143.57812 34.953125L143.57812 32.9375L145.34375 32.9375L145.34375 34.953125L143.57812 34.953125ZM143.57812 47.25L143.57812 36.875L145.34375 36.875L145.34375 47.25L143.57812 47.25ZM147.53125 47.25L147.53125 32.9375L149.28125 32.9375L149.28125 47.25L147.53125 47.25ZM158.67188 43.90625L160.48438 44.140625Q160.0625 45.71875 158.89062 46.609375Q157.73438 47.484375 155.92188 47.484375Q153.65625 47.484375 152.3125 46.09375Q150.98438 44.6875 150.98438 42.15625Q150.98438 39.53125 152.32812 38.09375Q153.67188 36.640625 155.82812 36.640625Q157.90625 36.640625 159.21875 38.0625Q160.54688 39.46875 160.54688 42.046875Q160.54688 42.203125 160.53125 42.515625L152.79688 42.515625Q152.89062 44.21875 153.76562 45.125Q154.64062 46.03125 155.9375 46.03125Q156.90625 46.03125 157.57812 45.53125Q158.26562 45.015625 158.67188 43.90625ZM152.89062 41.0625L158.6875 41.0625Q158.57812 39.765625 158.03125 39.109375Q157.1875 38.09375 155.84375 38.09375Q154.64062 38.09375 153.8125 38.90625Q152.98438 39.703125 152.89062 41.0625ZM175.34375 45.96875Q174.35938 46.796875 173.45312 47.140625Q172.54688 47.484375 171.51562 47.484375Q169.8125 47.484375 168.89062 46.65625Q167.96875 45.8125 167.96875 44.515625Q167.96875 43.75 168.3125 43.125Q168.67188 42.5 169.23438 42.125Q169.79688 41.734375 170.5 41.53125Q171.01562 41.40625 172.0625 41.265625Q174.1875 41.015625 175.1875 40.671875Q175.20312 40.3125 175.20312 40.203125Q175.20312 39.140625 174.70312 38.6875Q174.03125 38.09375 172.70312 38.09375Q171.45312 38.09375 170.85938 38.53125Q170.28125 38.96875 170.0 40.078125L168.28125 39.84375Q168.51562 38.734375 169.04688 38.0625Q169.57812 37.375 170.59375 37.015625Q171.60938 36.640625 172.95312 36.640625Q174.28125 36.640625 175.10938 36.953125Q175.9375 37.265625 176.32812 37.75Q176.71875 38.21875 176.875 38.9375Q176.96875 39.390625 176.96875 40.5625L176.96875 42.90625Q176.96875 45.359375 177.07812 46.015625Q177.1875 46.65625 177.53125 47.25L175.6875 47.25Q175.42188 46.703125 175.34375 45.96875ZM175.1875 42.046875Q174.23438 42.4375 172.3125 42.703125Q171.23438 42.859375 170.78125 43.0625Q170.34375 43.25 170.09375 43.625Q169.84375 44.0 169.84375 44.46875Q169.84375 45.171875 170.375 45.640625Q170.90625 46.109375 171.9375 46.109375Q172.95312 46.109375 173.73438 45.671875Q174.53125 45.21875 174.90625 44.453125Q175.1875 43.84375 175.1875 42.6875L175.1875 42.046875ZM179.5625 51.21875L179.5625 36.875L181.17188 36.875L181.17188 38.21875Q181.73438 37.4375 182.4375 37.046875Q183.15625 36.640625 184.17188 36.640625Q185.5 36.640625 186.51562 37.328125Q187.53125 38.015625 188.04688 39.265625Q188.57812 40.5 188.57812 41.984375Q188.57812 43.578125 188.0 44.859375Q187.4375 46.125 186.34375 46.8125Q185.25 47.484375 184.04688 47.484375Q183.17188 47.484375 182.46875 47.109375Q181.78125 46.734375 181.32812 46.171875L181.32812 51.21875L179.5625 51.21875ZM181.15625 42.125Q181.15625 44.125 181.96875 45.078125Q182.78125 46.03125 183.9375 46.03125Q185.10938 46.03125 185.9375 45.046875Q186.78125 44.0625 186.78125 41.96875Q186.78125 40.0 185.95312 39.015625Q185.14062 38.015625 184.01562 38.015625Q182.89062 38.015625 182.01562 39.078125Q181.15625 40.125 181.15625 42.125ZM190.5625 51.21875L190.5625 36.875L192.17188 36.875L192.17188 38.21875Q192.73438 37.4375 193.4375 37.046875Q194.15625 36.640625 195.17188 36.640625Q196.5 36.640625 197.51562 37.328125Q198.53125 38.015625 199.04688 39.265625Q199.57812 40.5 199.57812 41.984375Q199.57812 43.578125 199.0 44.859375Q198.4375 46.125 197.34375 46.8125Q196.25 47.484375 195.04688 47.484375Q194.17188 47.484375 193.46875 47.109375Q192.78125 46.734375 192.32812 46.171875L192.32812 51.21875L190.5625 51.21875ZM192.15625 42.125Q192.15625 44.125 192.96875 45.078125Q193.78125 46.03125 194.9375 46.03125Q196.10938 46.03125 196.9375 45.046875Q197.78125 44.0625 197.78125 41.96875Q197.78125 40.0 196.95312 39.015625Q196.14062 38.015625 195.01562 38.015625Q193.89062 38.015625 193.01562 39.078125Q192.15625 40.125 192.15625 42.125ZM201.53125 47.25L201.53125 32.9375L203.28125 32.9375L203.28125 47.25L201.53125 47.25ZM205.57812 34.953125L205.57812 32.9375L207.34375 32.9375L207.34375 34.953125L205.57812 34.953125ZM205.57812 47.25L205.57812 36.875L207.34375 36.875L207.34375 47.25L205.57812 47.25ZM216.67188 43.90625L218.48438 44.140625Q218.0625 45.71875 216.89062 46.609375Q215.73438 47.484375 213.92188 47.484375Q211.65625 47.484375 210.3125 46.09375Q208.98438 44.6875 208.98438 42.15625Q208.98438 39.53125 210.32812 38.09375Q211.67188 36.640625 213.82812 36.640625Q215.90625 36.640625 217.21875 38.0625Q218.54688 39.46875 218.54688 42.046875Q218.54688 42.203125 218.53125 42.515625L210.79688 42.515625Q210.89062 44.21875 211.76562 45.125Q212.64062 46.03125 213.9375 46.03125Q214.90625 46.03125 215.57812 45.53125Q216.26562 45.015625 216.67188 43.90625ZM210.89062 41.0625L216.6875 41.0625Q216.57812 39.765625 216.03125 39.109375Q215.1875 38.09375 213.84375 38.09375Q212.64062 38.09375 211.8125 38.90625Q210.98438 39.703125 210.89062 41.0625ZM227.29688 47.25L227.29688 45.9375Q226.3125 47.484375 224.39062 47.484375Q223.15625 47.484375 222.10938 46.796875Q221.07812 46.109375 220.5 44.890625Q219.9375 43.671875 219.9375 42.078125Q219.9375 40.515625 220.45312 39.25Q220.96875 37.984375 222.0 37.3125Q223.04688 36.640625 224.3125 36.640625Q225.25 36.640625 225.98438 37.046875Q226.71875 37.4375 227.1875 38.0625L227.1875 32.9375L228.92188 32.9375L228.92188 47.25L227.29688 47.25ZM221.73438 42.078125Q221.73438 44.0625 222.57812 45.046875Q223.42188 46.03125 224.5625 46.03125Q225.71875 46.03125 226.51562 45.09375Q227.32812 44.15625 227.32812 42.21875Q227.32812 40.09375 226.5 39.09375Q225.6875 38.09375 224.48438 38.09375Q223.3125 38.09375 222.51562 39.0625Q221.73438 40.015625 221.73438 42.078125ZM241.40625 45.671875L241.65625 47.234375Q240.92188 47.390625 240.32812 47.390625Q239.375 47.390625 238.84375 47.09375Q238.32812 46.78125 238.10938 46.296875Q237.89062 45.796875 237.89062 44.21875L237.89062 38.25L236.60938 38.25L236.60938 36.875L237.89062 36.875L237.89062 34.3125L239.64062 33.25L239.64062 36.875L241.40625 36.875L241.40625 38.25L239.64062 38.25L239.64062 44.3125Q239.64062 45.0625 239.73438 45.28125Q239.82812 45.484375 240.03125 45.625Q240.25 45.75 240.64062 45.75Q240.92188 45.75 241.40625 45.671875ZM242.92188 42.0625Q242.92188 39.1875 244.51562 37.796875Q245.85938 36.640625 247.78125 36.640625Q249.92188 36.640625 251.26562 38.046875Q252.625 39.453125 252.625 41.921875Q252.625 43.921875 252.03125 45.078125Q251.4375 46.21875 250.28125 46.859375Q249.14062 47.484375 247.78125 47.484375Q245.59375 47.484375 244.25 46.09375Q242.92188 44.6875 242.92188 42.0625ZM244.71875 42.0625Q244.71875 44.0625 245.57812 45.046875Q246.45312 46.03125 247.78125 46.03125Q249.09375 46.03125 249.95312 45.046875Q250.82812 44.046875 250.82812 42.0Q250.82812 40.078125 249.95312 39.09375Q249.07812 38.09375 247.78125 38.09375Q246.45312 38.09375 245.57812 39.09375Q244.71875 40.078125 244.71875 42.0625ZM267.34375 43.453125L269.0625 43.671875Q268.78125 45.46875 267.60938 46.484375Q266.45312 47.484375 264.75 47.484375Q262.625 47.484375 261.32812 46.09375Q260.03125 44.703125 260.03125 42.109375Q260.03125 40.421875 260.57812 39.171875Q261.14062 37.90625 262.28125 37.28125Q263.42188 36.640625 264.76562 36.640625Q266.45312 36.640625 267.51562 37.5Q268.59375 38.359375 268.90625 39.921875L267.1875 40.1875Q266.95312 39.140625 266.32812 38.625Q265.70312 38.09375 264.82812 38.09375Q263.5 38.09375 262.67188 39.046875Q261.84375 40.0 261.84375 42.046875Q261.84375 44.140625 262.64062 45.09375Q263.4375 46.03125 264.73438 46.03125Q265.76562 46.03125 266.45312 45.40625Q267.15625 44.765625 267.34375 43.453125ZM277.34375 45.96875Q276.35938 46.796875 275.45312 47.140625Q274.54688 47.484375 273.51562 47.484375Q271.8125 47.484375 270.89062 46.65625Q269.96875 45.8125 269.96875 44.515625Q269.96875 43.75 270.3125 43.125Q270.67188 42.5 271.23438 42.125Q271.79688 41.734375 272.5 41.53125Q273.01562 41.40625 274.0625 41.265625Q276.1875 41.015625 277.1875 40.671875Q277.20312 40.3125 277.20312 40.203125Q277.20312 39.140625 276.70312 38.6875Q276.03125 38.09375 274.70312 38.09375Q273.45312 38.09375 272.85938 38.53125Q272.28125 38.96875 272.0 40.078125L270.28125 39.84375Q270.51562 38.734375 271.04688 38.0625Q271.57812 37.375 272.59375 37.015625Q273.60938 36.640625 274.95312 36.640625Q276.28125 36.640625 277.10938 36.953125Q277.9375 37.265625 278.32812 37.75Q278.71875 38.21875 278.875 38.9375Q278.96875 39.390625 278.96875 40.5625L278.96875 42.90625Q278.96875 45.359375 279.07812 46.015625Q279.1875 46.65625 279.53125 47.25L277.6875 47.25Q277.42188 46.703125 277.34375 45.96875ZM277.1875 42.046875Q276.23438 42.4375 274.3125 42.703125Q273.23438 42.859375 272.78125 43.0625Q272.34375 43.25 272.09375 43.625Q271.84375 44.0 271.84375 44.46875Q271.84375 45.171875 272.375 45.640625Q272.90625 46.109375 273.9375 46.109375Q274.95312 46.109375 275.73438 45.671875Q276.53125 45.21875 276.90625 44.453125Q277.1875 43.84375 277.1875 42.6875L277.1875 42.046875ZM280.85938 44.15625L282.60938 43.875Q282.75 44.921875 283.42188 45.484375Q284.09375 46.03125 285.29688 46.03125Q286.5 46.03125 287.07812 45.546875Q287.67188 45.046875 287.67188 44.390625Q287.67188 43.796875 287.15625 43.453125Q286.79688 43.21875 285.35938 42.859375Q283.42188 42.359375 282.67188 42.015625Q281.9375 41.65625 281.54688 41.03125Q281.15625 40.390625 281.15625 39.625Q281.15625 38.9375 281.46875 38.34375Q281.79688 37.75 282.34375 37.359375Q282.75 37.0625 283.45312 36.859375Q284.17188 36.640625 284.98438 36.640625Q286.20312 36.640625 287.125 37.0Q288.04688 37.34375 288.48438 37.953125Q288.92188 38.546875 289.09375 39.546875L287.375 39.78125Q287.25 38.984375 286.6875 38.546875Q286.125 38.09375 285.10938 38.09375Q283.89062 38.09375 283.375 38.5Q282.85938 38.890625 282.85938 39.421875Q282.85938 39.765625 283.07812 40.046875Q283.28125 40.328125 283.75 40.515625Q284.01562 40.609375 285.29688 40.953125Q287.17188 41.453125 287.90625 41.78125Q288.64062 42.09375 289.0625 42.703125Q289.48438 43.296875 289.48438 44.203125Q289.48438 45.078125 288.96875 45.859375Q288.45312 46.640625 287.48438 47.0625Q286.51562 47.484375 285.29688 47.484375Q283.28125 47.484375 282.21875 46.640625Q281.15625 45.796875 280.85938 44.15625ZM298.35938 47.25L298.35938 45.71875Q297.15625 47.484375 295.07812 47.484375Q294.15625 47.484375 293.35938 47.140625Q292.5625 46.78125 292.17188 46.25Q291.79688 45.71875 291.64062 44.9375Q291.53125 44.421875 291.53125 43.296875L291.53125 36.875L293.28125 36.875L293.28125 42.625Q293.28125 44.0 293.39062 44.484375Q293.5625 45.171875 294.09375 45.578125Q294.64062 45.96875 295.42188 45.96875Q296.21875 45.96875 296.90625 45.5625Q297.60938 45.15625 297.89062 44.46875Q298.1875 43.765625 298.1875 42.4375L298.1875 36.875L299.9375 36.875L299.9375 47.25L298.35938 47.25ZM308.34375 45.96875Q307.35938 46.796875 306.45312 47.140625Q305.54688 47.484375 304.51562 47.484375Q302.8125 47.484375 301.89062 46.65625Q300.96875 45.8125 300.96875 44.515625Q300.96875 43.75 301.3125 43.125Q301.67188 42.5 302.23438 42.125Q302.79688 41.734375 303.5 41.53125Q304.01562 41.40625 305.0625 41.265625Q307.1875 41.015625 308.1875 40.671875Q308.20312 40.3125 308.20312 40.203125Q308.20312 39.140625 307.70312 38.6875Q307.03125 38.09375 305.70312 38.09375Q304.45312 38.09375 303.85938 38.53125Q303.28125 38.96875 303.0 40.078125L301.28125 39.84375Q301.51562 38.734375 302.04688 38.0625Q302.57812 37.375 303.59375 37.015625Q304.60938 36.640625 305.95312 36.640625Q307.28125 36.640625 308.10938 36.953125Q308.9375 37.265625 309.32812 37.75Q309.71875 38.21875 309.875 38.9375Q309.96875 39.390625 309.96875 40.5625L309.96875 42.90625Q309.96875 45.359375 310.07812 46.015625Q310.1875 46.65625 310.53125 47.25L308.6875 47.25Q308.42188 46.703125 308.34375 45.96875ZM308.1875 42.046875Q307.23438 42.4375 305.3125 42.703125Q304.23438 42.859375 303.78125 43.0625Q303.34375 43.25 303.09375 43.625Q302.84375 44.0 302.84375 44.46875Q302.84375 45.171875 303.375 45.640625Q303.90625 46.109375 304.9375 46.109375Q305.95312 46.109375 306.73438 45.671875Q307.53125 45.21875 307.90625 44.453125Q308.1875 43.84375 308.1875 42.6875L308.1875 42.046875ZM312.53125 47.25L312.53125 32.9375L314.28125 32.9375L314.28125 47.25L312.53125 47.25ZM329.35938 47.25L329.35938 45.71875Q328.15625 47.484375 326.07812 47.484375Q325.15625 47.484375 324.35938 47.140625Q323.5625 46.78125 323.17188 46.25Q322.79688 45.71875 322.64062 44.9375Q322.53125 44.421875 322.53125 43.296875L322.53125 36.875L324.28125 36.875L324.28125 42.625Q324.28125 44.0 324.39062 44.484375Q324.5625 45.171875 325.09375 45.578125Q325.64062 45.96875 326.42188 45.96875Q327.21875 45.96875 327.90625 45.5625Q328.60938 45.15625 328.89062 44.46875Q329.1875 43.765625 329.1875 42.4375L329.1875 36.875L330.9375 36.875L330.9375 47.25L329.35938 47.25ZM331.85938 44.15625L333.60938 43.875Q333.75 44.921875 334.42188 45.484375Q335.09375 46.03125 336.29688 46.03125Q337.5 46.03125 338.07812 45.546875Q338.67188 45.046875 338.67188 44.390625Q338.67188 43.796875 338.15625 43.453125Q337.79688 43.21875 336.35938 42.859375Q334.42188 42.359375 333.67188 42.015625Q332.9375 41.65625 332.54688 41.03125Q332.15625 40.390625 332.15625 39.625Q332.15625 38.9375 332.46875 38.34375Q332.79688 37.75 333.34375 37.359375Q333.75 37.0625 334.45312 36.859375Q335.17188 36.640625 335.98438 36.640625Q337.20312 36.640625 338.125 37.0Q339.04688 37.34375 339.48438 37.953125Q339.92188 38.546875 340.09375 39.546875L338.375 39.78125Q338.25 38.984375 337.6875 38.546875Q337.125 38.09375 336.10938 38.09375Q334.89062 38.09375 334.375 38.5Q333.85938 38.890625 333.85938 39.421875Q333.85938 39.765625 334.07812 40.046875Q334.28125 40.328125 334.75 40.515625Q335.01562 40.609375 336.29688 40.953125Q338.17188 41.453125 338.90625 41.78125Q339.64062 42.09375 340.0625 42.703125Q340.48438 43.296875 340.48438 44.203125Q340.48438 45.078125 339.96875 45.859375Q339.45312 46.640625 338.48438 47.0625Q337.51562 47.484375 336.29688 47.484375Q334.28125 47.484375 333.21875 46.640625Q332.15625 45.796875 331.85938 44.15625ZM349.67188 43.90625L351.48438 44.140625Q351.0625 45.71875 349.89062 46.609375Q348.73438 47.484375 346.92188 47.484375Q344.65625 47.484375 343.3125 46.09375Q341.98438 44.6875 341.98438 42.15625Q341.98438 39.53125 343.32812 38.09375Q344.67188 36.640625 346.82812 36.640625Q348.90625 36.640625 350.21875 38.0625Q351.54688 39.46875 351.54688 42.046875Q351.54688 42.203125 351.53125 42.515625L343.79688 42.515625Q343.89062 44.21875 344.76562 45.125Q345.64062 46.03125 346.9375 46.03125Q347.90625 46.03125 348.57812 45.53125Q349.26562 45.015625 349.67188 43.90625ZM343.89062 41.0625L349.6875 41.0625Q349.57812 39.765625 349.03125 39.109375Q348.1875 38.09375 346.84375 38.09375Q345.64062 38.09375 344.8125 38.90625Q343.98438 39.703125 343.89062 41.0625ZM353.54688 47.25L353.54688 36.875L355.125 36.875L355.125 38.453125Q355.73438 37.34375 356.25 37.0Q356.76562 36.640625 357.375 36.640625Q358.26562 36.640625 359.1875 37.203125L358.57812 38.84375Q357.9375 38.453125 357.29688 38.453125Q356.71875 38.453125 356.25 38.8125Q355.79688 39.15625 355.59375 39.765625Q355.3125 40.703125 355.3125 41.8125L355.3125 47.25L353.54688 47.25ZM359.85938 44.15625L361.60938 43.875Q361.75 44.921875 362.42188 45.484375Q363.09375 46.03125 364.29688 46.03125Q365.5 46.03125 366.07812 45.546875Q366.67188 45.046875 366.67188 44.390625Q366.67188 43.796875 366.15625 43.453125Q365.79688 43.21875 364.35938 42.859375Q362.42188 42.359375 361.67188 42.015625Q360.9375 41.65625 360.54688 41.03125Q360.15625 40.390625 360.15625 39.625Q360.15625 38.9375 360.46875 38.34375Q360.79688 37.75 361.34375 37.359375Q361.75 37.0625 362.45312 36.859375Q363.17188 36.640625 363.98438 36.640625Q365.20312 36.640625 366.125 37.0Q367.04688 37.34375 367.48438 37.953125Q367.92188 38.546875 368.09375 39.546875L366.375 39.78125Q366.25 38.984375 365.6875 38.546875Q365.125 38.09375 364.10938 38.09375Q362.89062 38.09375 362.375 38.5Q361.85938 38.890625 361.85938 39.421875Q361.85938 39.765625 362.07812 40.046875Q362.28125 40.328125 362.75 40.515625Q363.01562 40.609375 364.29688 40.953125Q366.17188 41.453125 366.90625 41.78125Q367.64062 42.09375 368.0625 42.703125Q368.48438 43.296875 368.48438 44.203125Q368.48438 45.078125 367.96875 45.859375Q367.45312 46.640625 366.48438 47.0625Q365.51562 47.484375 364.29688 47.484375Q362.28125 47.484375 361.21875 46.640625Q360.15625 45.796875 359.85938 44.15625Z" fill-rule="nonzero"/></svg>